# xmcd CD database file
#
# Track frame offsets:
#	150
#	9525
#	19725
#	38025
#	48075
#	59625
#	69375
#	83325
#	97050
#	107325
#	118800
#	135675
#	144300
#	154500
#	165450
#	174825
#	185175
#	197175
#	214350
#	227100
#
# Disc length: 3169 seconds
#
# Revision: 0
# Processed by: cddbd v1.5.1PL2 Copyright (c) Steve Scherf et al.
# Submitted via: CDex 1.51
#
DISCID=0c0c5f14
DTITLE=Martingale Music - Christmas Peace: Solo Guitar
DYEAR=1900
DGENRE=Christmas
TTITLE0=Joy To The World
TTITLE1=God Rest Ye Merry, Gentlemen
TTITLE2=O Holy Night
TTITLE3=Deck The Halls
TTITLE4=Go, Tell It On The Mountain
TTITLE5=Break Forth, O Beauteous Heavenly Light
TTITLE6=Savior's Lullaby
TTITLE7=How Great Our Joy!
TTITLE8=Creator Of The Stars Of Night
TTITLE9=Infant Holy, Infant Lowly
TTITLE10=Ave Maria
TTITLE11=I Heard The Bells On Christmas Day
TTITLE12=A Spotless Rose
TTITLE13=I Saw Three Ships
TTITLE14=Love Came Down At Christmas
TTITLE15=Coventry Carol
TTITLE16=All  My Heart This Night Rejoices
TTITLE17=The Birthday Of A King
TTITLE18=Still, Still, Still
TTITLE19=We Wish You A Merry Christmas`
EXTD=
EXTT0=
EXTT1=
EXTT2=
EXTT3=
EXTT4=
EXTT5=
EXTT6=
EXTT7=
EXTT8=
EXTT9=
EXTT10=
EXTT11=
EXTT12=
EXTT13=
EXTT14=
EXTT15=
EXTT16=
EXTT17=
EXTT18=
EXTT19=
PLAYORDER=
